<svg xmlns="http://www.w3.org/2000/svg" xmlns:xlink="http://www.w3.org/1999/xlink" xmlns:lucid="lucid" width="683" height="455"><g transform="translate(-58 -217)" lucid:page-tab-id="0_0"><path d="M200 280.68V246c0-3.3 2.7-6 6-6h54v40.68zM260 240h60v40.68h-60zM320 240h54c3.3 0 6 2.7 6 6v34.68h-60z" stroke="#5e5e5e" stroke-width="3" fill="#fff"/><path d="M260 402.72h-54c-3.3 0-6-2.7-6-6V280.68h60zM260 280.68h60v122.04h-60zM380 280.68v116.04c0 3.3-2.7 6-6 6h-54V280.68z" stroke="#5e5e5e" stroke-width="3" fill="none"/><use xlink:href="#a" transform="matrix(1,0,0,1,260,240) translate(23.82716049382716 24.944444444444443)"/><use xlink:href="#b" transform="matrix(1,0,0,1,320,240) translate(23.82716049382716 24.944444444444443)"/><path d="M200 523.12v-34.68c0-3.3 2.7-6 6-6h54v40.68zM260 482.44h60v40.68h-60zM320 482.44h54c3.3 0 6 2.7 6 6v34.68h-60z" stroke="#5e5e5e" stroke-width="3" fill="#fff"/><path d="M260 645.16h-54c-3.3 0-6-2.7-6-6V523.12h60zM260 523.12h60v122.04h-60zM380 523.12v116.04c0 3.3-2.7 6-6 6h-54V523.12z" stroke="#5e5e5e" stroke-width="3" fill="none"/><use xlink:href="#a" transform="matrix(1,0,0,1,260,482.4422570885284) translate(23.82716049382716 24.944444444444443)"/><use xlink:href="#b" transform="matrix(1,0,0,1,320,482.4422570885284) translate(23.82716049382716 24.944444444444443)"/><path d="M600 281.67V246c0-3.3 2.7-6 6-6h54v41.67zM660 240h54c3.3 0 6 2.7 6 6v35.67h-60z" stroke="#5e5e5e" stroke-width="3" fill="#fff"/><path d="M660 643.17h-54c-3.3 0-6-2.7-6-6v-355.5h60zM720 281.67v355.5c0 3.3-2.7 6-6 6h-54v-361.5z" stroke="#5e5e5e" stroke-width="3" fill="none"/><use xlink:href="#a" transform="matrix(1,0,0,1,600,240) translate(23.82716049382716 25.444444444444443)"/><use xlink:href="#b" transform="matrix(1,0,0,1,660,240) translate(23.82716049382716 25.444444444444443)"/><path d="M280 302.83c0-3.3 2.7-6 6-6h8c3.3 0 6 2.7 6 6v7.32c0 3.32-2.7 6-6 6h-8c-3.3 0-6-2.68-6-6z" stroke="#000" stroke-opacity="0" stroke-width="3" fill="#fff" fill-opacity="0"/><use xlink:href="#c" transform="matrix(1,0,0,1,285,301.8333333333333) translate(-7.345679012345679 17.77777777777778)"/><path d="M341.18 302.83c0-3.3 2.7-6 6-6h8c3.3 0 6 2.7 6 6v7.32c0 3.32-2.7 6-6 6h-8c-3.3 0-6-2.68-6-6z" stroke="#000" stroke-opacity="0" stroke-width="3" fill="#fff" fill-opacity="0"/><use xlink:href="#d" transform="matrix(1,0,0,1,346.179012345679,301.8333333333333) translate(-7.345679012345679 17.77777777777778)"/><path d="M280 358.83c0-3.3 2.7-6 6-6h8c3.3 0 6 2.7 6 6v7.32c0 3.32-2.7 6-6 6h-8c-3.3 0-6-2.68-6-6z" stroke="#000" stroke-opacity="0" stroke-width="3" fill="#fff" fill-opacity="0"/><use xlink:href="#e" transform="matrix(1,0,0,1,285,357.8333333333333) translate(-7.345679012345679 17.77777777777778)"/><path d="M338.5 358.83c0-3.3 2.7-6 6-6h8c3.33 0 6 2.7 6 6v7.32c0 3.32-2.67 6-6 6h-8c-3.3 0-6-2.68-6-6z" stroke="#000" stroke-opacity="0" stroke-width="3" fill="#fff" fill-opacity="0"/><use xlink:href="#f" transform="matrix(1,0,0,1,343.51234567901236,357.8333333333333) translate(-7.345679012345679 17.77777777777778)"/><path d="M280 545.28c0-3.32 2.7-6 6-6h8c3.3 0 6 2.68 6 6v7.32c0 3.3-2.7 6-6 6h-8c-3.3 0-6-2.7-6-6z" stroke="#000" stroke-opacity="0" stroke-width="3" fill="#fff" fill-opacity="0"/><use xlink:href="#g" transform="matrix(1,0,0,1,285,544.2755904218616) translate(-7.345679012345679 17.77777777777778)"/><path d="M341.18 545.28c0-3.32 2.7-6 6-6h8c3.3 0 6 2.68 6 6v7.32c0 3.3-2.7 6-6 6h-8c-3.3 0-6-2.7-6-6z" stroke="#000" stroke-opacity="0" stroke-width="3" fill="#fff" fill-opacity="0"/><use xlink:href="#h" transform="matrix(1,0,0,1,346.179012345679,544.2755904218616) translate(-7.345679012345679 17.77777777777778)"/><path d="M280 601.28c0-3.32 2.7-6 6-6h8c3.3 0 6 2.68 6 6v7.32c0 3.3-2.7 6-6 6h-8c-3.3 0-6-2.7-6-6z" stroke="#000" stroke-opacity="0" stroke-width="3" fill="#fff" fill-opacity="0"/><use xlink:href="#i" transform="matrix(1,0,0,1,285,600.2755904218618) translate(-7.345679012345679 17.77777777777778)"/><path d="M338.5 601.28c0-3.32 2.7-6 6-6h8c3.33 0 6 2.68 6 6v7.32c0 3.3-2.67 6-6 6h-8c-3.3 0-6-2.7-6-6z" stroke="#000" stroke-opacity="0" stroke-width="3" fill="#fff" fill-opacity="0"/><use xlink:href="#j" transform="matrix(1,0,0,1,343.51234567901236,600.2755904218618) translate(-7.345679012345679 17.77777777777778)"/><path d="M60 317.7c0-3.32 2.7-6 6-6h88c3.3 0 6 2.68 6 6v48c0 3.3-2.7 6-6 6H66c-3.3 0-6-2.7-6-6z" stroke="#000" stroke-opacity="0" stroke-width="3" fill="#fff" fill-opacity="0"/><use xlink:href="#k" transform="matrix(1,0,0,1,65,316.69753086419746) translate(10.067901234567906 30.27777777777778)"/><use xlink:href="#l" transform="matrix(1,0,0,1,65,316.69753086419746) translate(69.82098765432099 30.27777777777778)"/><path d="M60 577.7c0-3.32 2.7-6 6-6h88c3.3 0 6 2.68 6 6v48c0 3.3-2.7 6-6 6H66c-3.3 0-6-2.7-6-6z" stroke="#000" stroke-opacity="0" stroke-width="3" fill="#fff" fill-opacity="0"/><use xlink:href="#k" transform="matrix(1,0,0,1,65,576.6975308641975) translate(10.067901234567906 30.27777777777778)"/><use xlink:href="#m" transform="matrix(1,0,0,1,65,576.6975308641975) translate(69.82098765432099 30.27777777777778)"/><path d="M221.5 302.83c0-3.3 2.67-6 6-6h8c3.3 0 6 2.7 6 6v7.32c0 3.32-2.7 6-6 6h-8c-3.33 0-6-2.68-6-6z" stroke="#000" stroke-opacity="0" stroke-width="3" fill="#fff" fill-opacity="0"/><use xlink:href="#a" transform="matrix(1,0,0,1,226.48765432098764,301.8333333333333) translate(-1.1728395061728394 17.77777777777778)"/><path d="M221.5 358.83c0-3.3 2.67-6 6-6h8c3.3 0 6 2.7 6 6v7.32c0 3.32-2.7 6-6 6h-8c-3.33 0-6-2.68-6-6z" stroke="#000" stroke-opacity="0" stroke-width="3" fill="#fff" fill-opacity="0"/><use xlink:href="#b" transform="matrix(1,0,0,1,226.48765432098764,357.8333333333333) translate(-1.1728395061728394 17.77777777777778)"/><path d="M202.18 340H379M202.2 340h-1.02M378.97 340H380" stroke="#5e5e5e" stroke-width="2" fill="none"/><path d="M221.98 545.28c0-3.32 2.7-6 6-6h8c3.32 0 6 2.68 6 6v7.32c0 3.3-2.68 6-6 6h-8c-3.3 0-6-2.7-6-6z" stroke="#000" stroke-opacity="0" stroke-width="3" fill="#fff" fill-opacity="0"/><use xlink:href="#a" transform="matrix(1,0,0,1,226.98164468742118,544.2755904218616) translate(-1.1728395061728394 17.77777777777778)"/><path d="M222.14 601.28c0-3.32 2.68-6 6-6h8c3.3 0 6 2.68 6 6v7.32c0 3.3-2.7 6-6 6h-8c-3.32 0-6-2.7-6-6z" stroke="#000" stroke-opacity="0" stroke-width="3" fill="#fff" fill-opacity="0"/><use xlink:href="#b" transform="matrix(1,0,0,1,227.1359656750755,600.2755904218618) translate(-1.1728395061728394 17.77777777777778)"/><path d="M201 582.44h178M201.03 582.44H200M378.97 582.44H380" stroke="#5e5e5e" stroke-width="2" fill="none"/><path d="M620 302.83c0-3.3 2.7-6 6-6h8c3.3 0 6 2.7 6 6v7.32c0 3.32-2.7 6-6 6h-8c-3.3 0-6-2.68-6-6zM681.18 302.83c0-3.3 2.7-6 6-6h8c3.3 0 6 2.7 6 6v7.32c0 3.32-2.7 6-6 6h-8c-3.3 0-6-2.68-6-6z" stroke="#000" stroke-opacity="0" stroke-width="3" fill="#fff" fill-opacity="0"/><use xlink:href="#c" transform="matrix(1,0,0,1,686.179012345679,301.8333333333333) translate(-7.345679012345679 17.77777777777778)"/><path d="M620 344.4c0-3.3 2.7-6 6-6h8c3.3 0 6 2.7 6 6v7.33c0 3.3-2.7 6-6 6h-8c-3.3 0-6-2.7-6-6z" stroke="#000" stroke-opacity="0" stroke-width="3" fill="#fff" fill-opacity="0"/><use xlink:href="#b" transform="matrix(1,0,0,1,625,343.4053173585518) translate(-1.1728395061728394 17.77777777777778)"/><path d="M681.18 344.4c0-3.3 2.7-6 6-6h8c3.3 0 6 2.7 6 6v7.33c0 3.3-2.7 6-6 6h-8c-3.3 0-6-2.7-6-6z" stroke="#000" stroke-opacity="0" stroke-width="3" fill="#fff" fill-opacity="0"/><use xlink:href="#d" transform="matrix(1,0,0,1,686.179012345679,343.4053173585518) translate(-7.345679012345679 17.77777777777778)"/><path d="M620 302.83c0-3.3 2.7-6 6-6h8c3.3 0 6 2.7 6 6v7.32c0 3.32-2.7 6-6 6h-8c-3.3 0-6-2.68-6-6z" stroke="#000" stroke-opacity="0" stroke-width="3" fill="#fff" fill-opacity="0"/><use xlink:href="#a" transform="matrix(1,0,0,1,625,301.8333333333333) translate(-1.1728395061728394 17.77777777777778)"/><path d="M620 385.98c0-3.32 2.7-6 6-6h8c3.3 0 6 2.68 6 6v7.32c0 3.3-2.7 6-6 6h-8c-3.3 0-6-2.7-6-6z" stroke="#000" stroke-opacity="0" stroke-width="3" fill="#fff" fill-opacity="0"/><use xlink:href="#n" transform="matrix(1,0,0,1,625,384.97730138377034) translate(-1.1728395061728394 17.77777777777778)"/><path d="M681.18 385.98c0-3.32 2.7-6 6-6h8c3.3 0 6 2.68 6 6v7.32c0 3.3-2.7 6-6 6h-8c-3.3 0-6-2.7-6-6z" stroke="#000" stroke-opacity="0" stroke-width="3" fill="#fff" fill-opacity="0"/><use xlink:href="#e" transform="matrix(1,0,0,1,686.179012345679,384.97730138377034) translate(-7.345679012345679 17.77777777777778)"/><path d="M620 427.55c0-3.3 2.7-6 6-6h8c3.3 0 6 2.7 6 6v7.32c0 3.3-2.7 6-6 6h-8c-3.3 0-6-2.7-6-6z" stroke="#000" stroke-opacity="0" stroke-width="3" fill="#fff" fill-opacity="0"/><use xlink:href="#o" transform="matrix(1,0,0,1,625,426.54928540898885) translate(-1.1728395061728394 17.77777777777778)"/><path d="M681.18 427.55c0-3.3 2.7-6 6-6h8c3.3 0 6 2.7 6 6v7.32c0 3.3-2.7 6-6 6h-8c-3.3 0-6-2.7-6-6z" stroke="#000" stroke-opacity="0" stroke-width="3" fill="#fff" fill-opacity="0"/><use xlink:href="#f" transform="matrix(1,0,0,1,686.179012345679,426.54928540898885) translate(-7.345679012345679 17.77777777777778)"/><path d="M620 469.12c0-3.3 2.7-6 6-6h8c3.3 0 6 2.7 6 6v7.32c0 3.32-2.7 6-6 6h-8c-3.3 0-6-2.68-6-6z" stroke="#000" stroke-opacity="0" stroke-width="3" fill="#fff" fill-opacity="0"/><use xlink:href="#p" transform="matrix(1,0,0,1,625,468.12126943420736) translate(-1.1728395061728394 17.77777777777778)"/><path d="M681.18 469.12c0-3.3 2.7-6 6-6h8c3.3 0 6 2.7 6 6v7.32c0 3.32-2.7 6-6 6h-8c-3.3 0-6-2.68-6-6z" stroke="#000" stroke-opacity="0" stroke-width="3" fill="#fff" fill-opacity="0"/><use xlink:href="#g" transform="matrix(1,0,0,1,686.179012345679,468.12126943420736) translate(-7.345679012345679 17.77777777777778)"/><path d="M620 510.7c0-3.32 2.7-6 6-6h8c3.3 0 6 2.68 6 6v7.3c0 3.33-2.7 6-6 6h-8c-3.3 0-6-2.67-6-6z" stroke="#000" stroke-opacity="0" stroke-width="3" fill="#fff" fill-opacity="0"/><use xlink:href="#q" transform="matrix(1,0,0,1,625,509.69325345942593) translate(-1.1728395061728394 17.77777777777778)"/><path d="M620 552.27c0-3.32 2.7-6 6-6h8c3.3 0 6 2.68 6 6v7.32c0 3.3-2.7 6-6 6h-8c-3.3 0-6-2.7-6-6z" stroke="#000" stroke-opacity="0" stroke-width="3" fill="#fff" fill-opacity="0"/><use xlink:href="#r" transform="matrix(1,0,0,1,625,551.2652374846443) translate(-1.1728395061728394 17.77777777777778)"/><path d="M620 593.84c0-3.32 2.7-6 6-6h8c3.3 0 6 2.68 6 6v7.32c0 3.3-2.7 6-6 6h-8c-3.3 0-6-2.7-6-6z" stroke="#000" stroke-opacity="0" stroke-width="3" fill="#fff" fill-opacity="0"/><use xlink:href="#s" transform="matrix(1,0,0,1,625,592.837221509863) translate(-1.1728395061728394 17.77777777777778)"/><path d="M683.28 510.7c0-3.32 2.68-6 6-6h8c3.3 0 6 2.68 6 6v7.3c0 3.33-2.7 6-6 6h-8c-3.32 0-6-2.67-6-6z" stroke="#000" stroke-opacity="0" stroke-width="3" fill="#fff" fill-opacity="0"/><use xlink:href="#h" transform="matrix(1,0,0,1,688.277690352965,509.69325345942593) translate(-7.345679012345679 17.77777777777778)"/><path d="M683.28 551.63c0-3.32 2.68-6 6-6h8c3.3 0 6 2.68 6 6v7.32c0 3.3-2.7 6-6 6h-8c-3.32 0-6-2.7-6-6z" stroke="#000" stroke-opacity="0" stroke-width="3" fill="#fff" fill-opacity="0"/><use xlink:href="#i" transform="matrix(1,0,0,1,688.277690352965,550.6274909272438) translate(-7.345679012345679 17.77777777777778)"/><path d="M683.28 592.56c0-3.3 2.68-6 6-6h8c3.3 0 6 2.7 6 6v7.32c0 3.32-2.7 6-6 6h-8c-3.32 0-6-2.68-6-6z" stroke="#000" stroke-opacity="0" stroke-width="3" fill="#fff" fill-opacity="0"/><use xlink:href="#j" transform="matrix(1,0,0,1,688.277690352965,591.5617283950617) translate(-7.345679012345679 17.77777777777778)"/><path d="M441 440.87h100.5M441.03 440.87H440" stroke="#5e5e5e" stroke-width="2" fill="none"/><path d="M556.76 440.87l-14.26 4.64v-9.27z" stroke="#5e5e5e" stroke-width="2" fill="#5e5e5e"/><path d="M430 363.73c0-3.32 2.7-6 6-6h108c3.3 0 6 2.68 6 6v48c0 3.3-2.7 6-6 6H436c-3.3 0-6-2.7-6-6z" stroke="#000" stroke-opacity="0" stroke-width="3" fill="#fff" fill-opacity="0"/><g><use xlink:href="#t" transform="matrix(1,0,0,1,435,362.72630501287284) translate(2.098765432098773 30.27777777777778)"/></g><defs><path fill="#333" d="M101-251c68 0 85 55 85 127S166 4 100 4C33 4 14-52 14-124c0-73 17-127 87-127zm-1 229c47 0 54-49 54-102s-4-102-53-102c-51 0-55 48-55 102 0 53 5 102 54 102" id="u"/><use transform="matrix(0.06172839506172839,0,0,0.06172839506172839,0,0)" xlink:href="#u" id="a"/><path fill="#333" d="M27 0v-27h64v-190l-56 39v-29l58-41h29v221h61V0H27" id="v"/><use transform="matrix(0.06172839506172839,0,0,0.06172839506172839,0,0)" xlink:href="#v" id="b"/><path fill="#333" d="M101-251c82-7 93 87 43 132L82-64C71-53 59-42 53-27h129V0H18c2-99 128-94 128-182 0-28-16-43-45-43s-46 15-49 41l-32-3c6-41 34-60 81-64" id="w"/><path fill="#333" d="M54-142c48-35 137-8 131 61C196 18 31 33 14-55l32-4c7 23 22 37 52 37 35-1 51-22 54-58 4-55-73-65-99-34H22l8-134h141v27H59" id="x"/><g id="c"><use transform="matrix(0.06172839506172839,0,0,0.06172839506172839,0,0)" xlink:href="#w"/><use transform="matrix(0.06172839506172839,0,0,0.06172839506172839,12.345679012345679,0)" xlink:href="#x"/></g><path fill="#333" d="M126-127c33 6 58 20 58 59 0 88-139 92-164 29-3-8-5-16-6-25l32-3c6 27 21 44 54 44 32 0 52-15 52-46 0-38-36-46-79-43v-28c39 1 72-4 72-42 0-27-17-43-46-43-28 0-47 15-49 41l-32-3c6-42 35-63 81-64 48-1 79 21 79 65 0 36-21 52-52 59" id="y"/><g id="d"><use transform="matrix(0.06172839506172839,0,0,0.06172839506172839,0,0)" xlink:href="#v"/><use transform="matrix(0.06172839506172839,0,0,0.06172839506172839,12.345679012345679,0)" xlink:href="#y"/></g><path fill="#333" d="M110-160c48 1 74 30 74 79 0 53-28 85-80 85-65 0-83-55-86-122-5-90 50-162 133-122 14 7 22 21 27 39l-31 6c-5-40-67-38-82-6-9 19-15 44-15 74 11-20 30-34 60-33zm-7 138c34 0 49-23 49-58s-16-56-50-56c-29 0-50 16-49 49 1 36 15 65 50 65" id="z"/><g id="e"><use transform="matrix(0.06172839506172839,0,0,0.06172839506172839,0,0)" xlink:href="#z"/><use transform="matrix(0.06172839506172839,0,0,0.06172839506172839,12.345679012345679,0)" xlink:href="#x"/></g><path fill="#333" d="M64 0c3-98 48-159 88-221H18v-27h164v26C143-157 98-101 97 0H64" id="A"/><g id="f"><use transform="matrix(0.06172839506172839,0,0,0.06172839506172839,0,0)" xlink:href="#A"/><use transform="matrix(0.06172839506172839,0,0,0.06172839506172839,12.345679012345679,0)" xlink:href="#A"/></g><path fill="#333" d="M99-251c64 0 84 50 84 122C183-37 130 33 47-8c-14-7-20-23-25-40l30-5c6 39 69 39 84 7 9-19 16-44 16-74-10 22-31 35-62 35-49 0-73-33-73-83 0-54 28-83 82-83zm-1 141c31-1 51-18 51-49 0-36-14-67-51-67-34 0-49 23-49 58 0 34 15 58 49 58" id="B"/><path fill="#333" d="M134-131c28 9 52 24 51 62-1 50-34 73-85 73S17-19 16-69c0-36 21-54 49-61-75-25-45-126 34-121 46 3 78 18 79 63 0 33-17 51-44 57zm-34-11c31 1 46-15 46-44 0-28-17-43-47-42-29 0-46 13-45 42 1 28 16 44 46 44zm1 122c35 0 51-18 51-52 0-30-18-46-53-46-33 0-51 17-51 47 0 34 19 51 53 51" id="C"/><g id="g"><use transform="matrix(0.06172839506172839,0,0,0.06172839506172839,0,0)" xlink:href="#B"/><use transform="matrix(0.06172839506172839,0,0,0.06172839506172839,12.345679012345679,0)" xlink:href="#C"/></g><g id="h"><use transform="matrix(0.06172839506172839,0,0,0.06172839506172839,0,0)" xlink:href="#u"/><use transform="matrix(0.06172839506172839,0,0,0.06172839506172839,12.345679012345679,0)" xlink:href="#B"/></g><g id="i"><use transform="matrix(0.06172839506172839,0,0,0.06172839506172839,0,0)" xlink:href="#w"/><use transform="matrix(0.06172839506172839,0,0,0.06172839506172839,12.345679012345679,0)" xlink:href="#z"/></g><g id="j"><use transform="matrix(0.06172839506172839,0,0,0.06172839506172839,0,0)" xlink:href="#A"/><use transform="matrix(0.06172839506172839,0,0,0.06172839506172839,12.345679012345679,0)" xlink:href="#y"/></g><path fill="#333" d="M47-200c-23 0-25-39 0-38 13 0 18 7 20 19-1 11-8 19-20 19zM65-12l28 4v8H8v-8l28-4v-141l-24-4v-8h53v153" id="D"/><path fill="#333" d="M126-118c4-37-42-32-68-25v131l24 4v8H8C5-13 21-9 28-12v-141c-7-3-23 1-20-12h48l1 13c22-15 77-30 92 2 32-22 104-36 104 29v109c8 3 24-2 21 12h-75v-8l25-4v-106c3-39-45-31-72-24 7 37 1 88 3 130l25 4v8h-78v-8l24-4v-106" id="E"/><path fill="#333" d="M32-163c41-10 102-14 102 39v112c8 3 24-2 21 12h-45l-4-17C83 13 3 13 13-46c-2-50 45-50 92-51 4-36-5-70-42-56-6 2-12 4-16 6-4 7 0 23-15 20v-36zM42-47c0 41 41 33 63 22v-59c-34 1-63-1-63 37" id="F"/><path fill="#333" d="M141-152c28 39 5 97-54 97-9 0-20-2-27-3L49-35c29 22 130-14 124 52-4 45-38 57-88 61C21 83-8 26 45-2 33-6 22-15 21-31l28-31c-19-9-28-26-28-51-2-51 53-65 100-52l38-20 7 8zM85 64c35 0 61-11 61-42 0-35-57-17-89-21-9 8-16 19-17 34 0 25 19 29 45 29zM52-113c1 26 7 46 35 44 28-1 34-16 35-44 0-26-6-43-34-43s-36 17-36 43" id="G"/><path fill="#333" d="M84-170c49 0 66 33 63 87H46c-8 60 38 80 95 63v10C128-2 108 4 88 4 34 4 14-29 14-84c-1-54 22-86 70-86zm33 73c12-57-57-82-69-24-1 7-2 15-2 24h71" id="H"/><g id="k"><use transform="matrix(0.06172839506172839,0,0,0.06172839506172839,0,0)" xlink:href="#D"/><use transform="matrix(0.06172839506172839,0,0,0.06172839506172839,6.172839506172839,0)" xlink:href="#E"/><use transform="matrix(0.06172839506172839,0,0,0.06172839506172839,23.456790123456788,0)" xlink:href="#F"/><use transform="matrix(0.06172839506172839,0,0,0.06172839506172839,33.2716049382716,0)" xlink:href="#G"/><use transform="matrix(0.06172839506172839,0,0,0.06172839506172839,44.38271604938271,0)" xlink:href="#H"/></g><path fill="#333" d="M110-14l48 5v9H32v-9l48-5v-192l-48 17v-10l69-39h9v224" id="I"/><use transform="matrix(0.06172839506172839,0,0,0.06172839506172839,0,0)" xlink:href="#I" id="l"/><path fill="#333" d="M24-231c66-21 156 2 128 81C132-92 78-66 39-27h121V0H16v-26l59-54c26-25 47-47 47-97 0-48-47-57-81-37l-6 29H24v-46" id="J"/><use transform="matrix(0.06172839506172839,0,0,0.06172839506172839,0,0)" xlink:href="#J" id="m"/><use transform="matrix(0.06172839506172839,0,0,0.06172839506172839,0,0)" xlink:href="#w" id="n"/><use transform="matrix(0.06172839506172839,0,0,0.06172839506172839,0,0)" xlink:href="#y" id="o"/><path fill="#333" d="M155-56V0h-30v-56H8v-25l114-167h33v167h35v25h-35zm-30-156c-27 46-58 90-88 131h88v-131" id="K"/><use transform="matrix(0.06172839506172839,0,0,0.06172839506172839,0,0)" xlink:href="#K" id="p"/><use transform="matrix(0.06172839506172839,0,0,0.06172839506172839,0,0)" xlink:href="#x" id="q"/><use transform="matrix(0.06172839506172839,0,0,0.06172839506172839,0,0)" xlink:href="#z" id="r"/><use transform="matrix(0.06172839506172839,0,0,0.06172839506172839,0,0)" xlink:href="#A" id="s"/><path fill="#333" d="M76-208v77h127v40H76V0H24v-248h183v40H76" id="L"/><path fill="#333" d="M25 0v-261h50V0H25" id="M"/><path fill="#333" d="M133-34C117-15 103 5 69 4 32 3 11-16 11-54c-1-60 55-63 116-61 1-26-3-47-28-47-18 1-26 9-28 27l-52-2c7-38 36-58 82-57s74 22 75 68l1 82c-1 14 12 18 25 15v27c-30 8-71 5-69-32zm-48 3c29 0 43-24 42-57-32 0-66-3-65 30 0 17 8 27 23 27" id="N"/><path fill="#333" d="M115-3C79 11 28 4 28-45v-112H4v-33h27l15-45h31v45h36v33H77v99c-1 23 16 31 38 25v30" id="O"/><path fill="#333" d="M185-48c-13 30-37 53-82 52C43 2 14-33 14-96s30-98 90-98c62 0 83 45 84 108H66c0 31 8 55 39 56 18 0 30-7 34-22zm-45-69c5-46-57-63-70-21-2 6-4 13-4 21h74" id="P"/><path fill="#333" d="M135-194c87-1 58 113 63 194h-50c-7-57 23-157-34-157-59 0-34 97-39 157H25l-1-190h47c2 12-1 28 3 38 12-26 28-41 61-42" id="Q"/><path fill="#333" d="M25-224v-37h50v37H25zM25 0v-190h50V0H25" id="R"/><path fill="#333" d="M195-6C206 82 75 100 31 46c-4-6-6-13-8-21l49-6c3 16 16 24 34 25 40 0 42-37 40-79-11 22-30 35-61 35-53 0-70-43-70-97 0-56 18-96 73-97 30 0 46 14 59 34l2-30h47zm-90-29c32 0 41-27 41-63 0-35-9-62-40-62-32 0-39 29-40 63 0 36 9 62 39 62" id="S"/><g id="t"><use transform="matrix(0.06172839506172839,0,0,0.06172839506172839,0,0)" xlink:href="#L"/><use transform="matrix(0.06172839506172839,0,0,0.06172839506172839,13.518518518518517,0)" xlink:href="#M"/><use transform="matrix(0.06172839506172839,0,0,0.06172839506172839,19.691358024691358,0)" xlink:href="#N"/><use transform="matrix(0.06172839506172839,0,0,0.06172839506172839,32.03703703703704,0)" xlink:href="#O"/><use transform="matrix(0.06172839506172839,0,0,0.06172839506172839,39.382716049382715,0)" xlink:href="#O"/><use transform="matrix(0.06172839506172839,0,0,0.06172839506172839,46.72839506172839,0)" xlink:href="#P"/><use transform="matrix(0.06172839506172839,0,0,0.06172839506172839,59.07407407407407,0)" xlink:href="#Q"/><use transform="matrix(0.06172839506172839,0,0,0.06172839506172839,72.59259259259258,0)" xlink:href="#R"/><use transform="matrix(0.06172839506172839,0,0,0.06172839506172839,78.76543209876542,0)" xlink:href="#Q"/><use transform="matrix(0.06172839506172839,0,0,0.06172839506172839,92.28395061728394,0)" xlink:href="#S"/></g></defs></g></svg>