<svg xmlns="http://www.w3.org/2000/svg" xmlns:xlink="http://www.w3.org/1999/xlink" xmlns:lucid="lucid" width="414" height="261"><g transform="translate(-180 -306)" lucid:page-tab-id="0_0"><path d="M398.25 500H561.5" stroke="#5e5e5e" stroke-width="2" fill="none"/><path stroke="#5e5e5e" stroke-width=".05" fill="#5e5e5e"/><path d="M576.76 500l-14.26 4.64v-9.28z" stroke="#5e5e5e" stroke-width="2" fill="#5e5e5e"/><path d="M388.63 441.5c0-.4.33-.75.75-.75h7c.4 0 .75.34.75.75 0 .4-.34.75-.75.75h-7c-.42 0-.75-.34-.75-.75zM388.63 381.5c0-.4.33-.75.75-.75h7c.4 0 .75.34.75.75 0 .4-.34.75-.75.75h-7c-.42 0-.75-.34-.75-.75zM459.38 500.75c.4 0 .75.34.75.75v7c0 .4-.34.75-.75.75-.42 0-.75-.34-.75-.75v-7c0-.4.33-.75.75-.75zM521.5 500.75c.4 0 .75.34.75.75v7c0 .4-.34.75-.75.75-.4 0-.75-.34-.75-.75v-7c0-.4.34-.75.75-.75z" stroke="#5e5e5e" stroke-width="1.5" fill="none"/><path d="M392.25 505c0-2.76 2.24-5 5-5s5 2.24 5 5v29.25c0 2.76-2.24 5-5 5s-5-2.24-5-5z" stroke="#000" stroke-opacity="0" stroke-width="3" fill="#fff" fill-opacity="0"/><use xlink:href="#a" transform="matrix(1,0,0,1,397.2530864197531,504.99999999999955) translate(-4.4382716049382696 18.555555555555554)"/><path d="M364.94 367.75c0-2.76 2.24-5 5-5s5 2.24 5 5V378c0 2.76-2.24 5-5 5s-5-2.24-5-5z" stroke="#000" stroke-opacity="0" stroke-width="3" fill="#fff" fill-opacity="0"/><use xlink:href="#b" transform="matrix(1,0,0,1,369.93827160493834,367.75) translate(-4.4382716049382696 14.222222222222218)"/><path d="M360 425.83h19.88v31.34H360z" fill="#fff" fill-opacity="0"/><use xlink:href="#c" transform="matrix(1,0,0,1,365,430.83333333333314) translate(0.061728395061730446 14.222222222222218)"/><path d="M449.44 519h19.87v31.33h-19.86z" fill="#fff" fill-opacity="0"/><use xlink:href="#c" transform="matrix(1,0,0,1,454.4382716049383,524) translate(0.061728395061730446 14.222222222222218)"/><path d="M516.5 524c0-2.76 2.24-5 5-5s5 2.24 5 5v10.25c0 2.76-2.24 5-5 5s-5-2.24-5-5z" stroke="#000" stroke-opacity="0" stroke-width="3" fill="#fff" fill-opacity="0"/><use xlink:href="#b" transform="matrix(1,0,0,1,521.5,524) translate(-4.4382716049382696 14.222222222222218)"/><path d="M218.5 500h177.75" stroke="#5e5e5e" stroke-width="2" fill="none"/><path d="M203.24 500l14.26-4.64v9.28z" stroke="#5e5e5e" stroke-width="2" fill="#5e5e5e"/><path d="M396.23 500h1.02" stroke="#5e5e5e" stroke-width="2" fill="none"/><path d="M341.5 500.75c.4 0 .75.34.75.75v7c0 .4-.34.75-.75.75-.4 0-.75-.34-.75-.75v-7c0-.4.34-.75.75-.75zM281.5 500.75c.4 0 .75.34.75.75v7c0 .4-.34.75-.75.75-.4 0-.75-.34-.75-.75v-7c0-.4.34-.75.75-.75z" stroke="#5e5e5e" stroke-width="1.5" fill="none"/><path d="M330.06 519h19.88v31.33h-19.88z" fill="#fff" fill-opacity="0"/><use xlink:href="#d" transform="matrix(1,0,0,1,335.0617283950617,524) translate(-2.87654320987654 14.222222222222218)"/><path d="M271.56 519h19.88v31.33h-19.88z" fill="#fff" fill-opacity="0"/><use xlink:href="#e" transform="matrix(1,0,0,1,276.5617283950617,524) translate(-2.87654320987654 14.222222222222218)"/><path d="M397.97 499.3L559.3 340.7" stroke="#e81313" stroke-width="2" fill="none"/><path d="M398.7 500l-.38.35-1.07-.35-1.58.25-.4.3 2-1.98z" stroke="#e81313" stroke-width=".05" fill="#e81313"/><path d="M559.27 340.72l.73-.72" stroke="#e81313" stroke-width="2" fill="none"/><use xlink:href="#f" transform="matrix(1,0,0,1,483.337871274833,416.22994298664815) translate(0.004999999999999005 14.222222222222223)"/><use xlink:href="#g" transform="matrix(1,0,0,1,483.337871274833,416.22994298664815) translate(14.819814814814816 14.222222222222223)"/><use xlink:href="#h" transform="matrix(1,0,0,1,483.337871274833,416.22994298664815) translate(30.12845679012346 14.222222222222223)"/><path d="M201 500h195.25M201.03 500H200M396.23 500h1.02" stroke="#e81313" stroke-width="2" fill="none"/><use xlink:href="#f" transform="matrix(1,0,0,1,223.8613676066883,474.66666666666623) translate(0.004999999999999005 14.222222222222223)"/><use xlink:href="#g" transform="matrix(1,0,0,1,223.8613676066883,474.66666666666623) translate(14.819814814814816 14.222222222222223)"/><use xlink:href="#i" transform="matrix(1,0,0,1,223.8613676066883,474.66666666666623) translate(30.12845679012346 14.222222222222223)"/><path d="M397.25 499V338.5" stroke="#5e5e5e" stroke-width="2" fill="none"/><path d="M398.25 500.33l-1-.33-1 .16v-1.2h2z" stroke="#5e5e5e" stroke-width=".05" fill="#5e5e5e"/><path d="M397.25 323.24l4.64 14.26h-9.28z" stroke="#5e5e5e" stroke-width="2" fill="#5e5e5e"/><defs><path fill="#333" d="M101-251c68 0 85 55 85 127S166 4 100 4C33 4 14-52 14-124c0-73 17-127 87-127zm-1 229c47 0 54-49 54-102s-4-102-53-102c-51 0-55 48-55 102 0 53 5 102 54 102" id="j"/><use transform="matrix(0.0493827160493827,0,0,0.0493827160493827,0,0)" xlink:href="#j" id="a"/><path fill="#333" d="M101-251c82-7 93 87 43 132L82-64C71-53 59-42 53-27h129V0H18c2-99 128-94 128-182 0-28-16-43-45-43s-46 15-49 41l-32-3c6-41 34-60 81-64" id="k"/><use transform="matrix(0.0493827160493827,0,0,0.0493827160493827,0,0)" xlink:href="#k" id="b"/><path fill="#333" d="M27 0v-27h64v-190l-56 39v-29l58-41h29v221h61V0H27" id="l"/><use transform="matrix(0.0493827160493827,0,0,0.0493827160493827,0,0)" xlink:href="#l" id="c"/><path fill="#333" d="M16-82v-28h88v28H16" id="m"/><g id="d"><use transform="matrix(0.0493827160493827,0,0,0.0493827160493827,0,0)" xlink:href="#m"/><use transform="matrix(0.0493827160493827,0,0,0.0493827160493827,5.876543209876541,0)" xlink:href="#l"/></g><g id="e"><use transform="matrix(0.0493827160493827,0,0,0.0493827160493827,0,0)" xlink:href="#m"/><use transform="matrix(0.0493827160493827,0,0,0.0493827160493827,5.876543209876541,0)" xlink:href="#k"/></g><path fill="#333" d="M123 10C108 53 80 86 19 72V37c35 8 53-11 59-39L3-190h52l48 148c12-52 28-100 44-148h51" id="n"/><use transform="matrix(0.04938271604938272,0,0,0.04938271604938272,0,0)" xlink:href="#n" id="f"/><path fill="#333" d="M15-148v-39h180v39H15zm0 97v-39h180v39H15" id="o"/><use transform="matrix(0.04938271604938272,0,0,0.04938271604938272,0,0)" xlink:href="#o" id="g"/><path fill="#333" d="M144 0l-44-69L55 0H2l70-98-66-92h53l41 62 40-62h54l-67 91 71 99h-54" id="p"/><use transform="matrix(0.04938271604938272,0,0,0.04938271604938272,0,0)" xlink:href="#p" id="h"/><path fill="#333" d="M101-251c68 0 84 54 84 127C185-50 166 4 99 4S15-52 14-124c-1-75 17-127 87-127zm-1 216c37-5 36-46 36-89s4-89-36-89c-39 0-36 45-36 89 0 43-3 85 36 89" id="q"/><use transform="matrix(0.04938271604938272,0,0,0.04938271604938272,0,0)" xlink:href="#q" id="i"/></defs></g></svg>