<svg xmlns="http://www.w3.org/2000/svg" xmlns:xlink="http://www.w3.org/1999/xlink" xmlns:lucid="lucid" width="561" height="306"><g transform="translate(-159 -467)" lucid:page-tab-id="0_0"><path d="M220 526c0-3.3 2.7-6 6-6h8c3.3 0 6 2.7 6 6v8c0 3.3-2.7 6-6 6h-8c-3.3 0-6-2.7-6-6z" stroke="#000" stroke-opacity="0" stroke-width="3" fill="#fff" fill-opacity="0"/><use xlink:href="#a" transform="matrix(1,0,0,1,225,525) translate(-1.1728395061728394 17.77777777777778)"/><path d="M283 526c0-3.3 2.7-6 6-6h8c3.3 0 6 2.7 6 6v8c0 3.3-2.7 6-6 6h-8c-3.3 0-6-2.7-6-6z" stroke="#000" stroke-opacity="0" stroke-width="3" fill="#fff" fill-opacity="0"/><use xlink:href="#a" transform="matrix(1,0,0,1,288,525) translate(-1.1728395061728394 17.77777777777778)"/><path d="M200 506c0-3.3 2.7-6 6-6h108c3.3 0 6 2.7 6 6v108c0 3.3-2.7 6-6 6H206c-3.3 0-6-2.7-6-6z" stroke="#5e5e5e" stroke-width="3" fill="#ffeca9"/><path d="M261.5 500.75c.4 0 .75.34.75.75v117c0 .4-.34.75-.75.75-.4 0-.75-.34-.75-.75v-117c0-.4.34-.75.75-.75z" stroke="#5e5e5e" stroke-width="1.5" fill="none"/><path d="M200.75 561.5c0-.4.34-.75.75-.75h117c.4 0 .75.34.75.75 0 .4-.34.75-.75.75h-117c-.4 0-.75-.34-.75-.75z" stroke="#5e5e5e" stroke-width="1.5" fill="none"/><path d="M321.5 506c0-3.3 2.7-6 6-6h108c3.3 0 6 2.7 6 6v108c0 3.3-2.7 6-6 6h-108c-3.3 0-6-2.7-6-6z" stroke="#5e5e5e" stroke-width="3" fill="#c1e4f7"/><path d="M380 500.75c.4 0 .75.34.75.75v117c0 .4-.34.75-.75.75-.4 0-.75-.34-.75-.75v-117c0-.4.34-.75.75-.75z" stroke="#5e5e5e" stroke-width="1.5" fill="none"/><path d="M320.75 561.5c0-.4.34-.75.75-.75h117c.4 0 .75.34.75.75 0 .4-.34.75-.75.75h-117c-.4 0-.75-.34-.75-.75z" stroke="#5e5e5e" stroke-width="1.5" fill="none"/><path d="M200 626c0-3.3 2.7-6 6-6h108c3.3 0 6 2.7 6 6v108c0 3.3-2.7 6-6 6H206c-3.3 0-6-2.7-6-6z" stroke="#5e5e5e" stroke-width="3" fill="#ffbbb1"/><path d="M320 626c0-3.3 2.7-6 6-6h109.5c3.3 0 6 2.7 6 6v108c0 3.3-2.7 6-6 6H326c-3.3 0-6-2.7-6-6z" stroke="#5e5e5e" stroke-width="3" fill="#c7e8ac"/><path d="M261.5 620.75c.4 0 .75.34.75.75v117c0 .4-.34.75-.75.75-.4 0-.75-.34-.75-.75v-117c0-.4.34-.75.75-.75zM381.5 620.75c.4 0 .75.34.75.75v117c0 .4-.34.75-.75.75-.4 0-.75-.34-.75-.75v-117c0-.4.34-.75.75-.75z" stroke="#5e5e5e" stroke-width="1.5" fill="none"/><path d="M200 680c0-.4.34-.75.75-.75H438.5c.4 0 .75.34.75.75 0 .4-.34.75-.75.75H200.75c-.4 0-.75-.34-.75-.75z" stroke="#5e5e5e" stroke-width="1.5" fill="none"/><path d="M218.88 645.25c0-3.3 2.68-6 6-6h10.24c3.32 0 6 2.7 6 6v8c0 3.3-2.68 6-6 6h-10.25c-3.3 0-6-2.7-6-6z" stroke="#000" stroke-opacity="0" stroke-width="3" fill="#fff" fill-opacity="0"/><use xlink:href="#b" transform="matrix(1,0,0,1,223.875,644.25) translate(0.3271604938271606 17.77777777777778)"/><path d="M280.38 645.25c0-3.3 2.68-6 6-6h10.25c3.3 0 6 2.7 6 6v8c0 3.3-2.7 6-6 6h-10.25c-3.32 0-6-2.7-6-6z" stroke="#000" stroke-opacity="0" stroke-width="3" fill="#fff" fill-opacity="0"/><use xlink:href="#c" transform="matrix(1,0,0,1,285.375,644.25) translate(0.3271604938271606 17.77777777777778)"/><path d="M338.13 646c0-3.3 2.68-6 6-6h10.25c3.3 0 6 2.7 6 6v8c0 3.3-2.7 6-6 6h-10.25c-3.32 0-6-2.7-6-6z" stroke="#000" stroke-opacity="0" stroke-width="3" fill="#fff" fill-opacity="0"/><use xlink:href="#d" transform="matrix(1,0,0,1,343.125,645) translate(0.3271604938271606 17.77777777777778)"/><path d="M397 646c0-3.3 2.7-6 6-6h10.25c3.3 0 6 2.7 6 6v8c0 3.3-2.7 6-6 6H403c-3.3 0-6-2.7-6-6z" stroke="#000" stroke-opacity="0" stroke-width="3" fill="#fff" fill-opacity="0"/><use xlink:href="#c" transform="matrix(1,0,0,1,402,645) translate(0.3271604938271606 17.77777777777778)"/><path d="M220.38 706c0-3.3 2.68-6 6-6h10.24c3.32 0 6 2.7 6 6v8c0 3.3-2.68 6-6 6h-10.25c-3.3 0-6-2.7-6-6z" stroke="#000" stroke-opacity="0" stroke-width="3" fill="#fff" fill-opacity="0"/><use xlink:href="#d" transform="matrix(1,0,0,1,225.375,705) translate(0.3271604938271606 17.77777777777778)"/><path d="M280.38 706c0-3.3 2.68-6 6-6h10.25c3.3 0 6 2.7 6 6v8c0 3.3-2.7 6-6 6h-10.25c-3.32 0-6-2.7-6-6z" stroke="#000" stroke-opacity="0" stroke-width="3" fill="#fff" fill-opacity="0"/><use xlink:href="#e" transform="matrix(1,0,0,1,285.375,705) translate(0.3271604938271606 17.77777777777778)"/><path d="M338.13 706c0-3.3 2.68-6 6-6h10.25c3.3 0 6 2.7 6 6v8c0 3.3-2.7 6-6 6h-10.25c-3.32 0-6-2.7-6-6z" stroke="#000" stroke-opacity="0" stroke-width="3" fill="#fff" fill-opacity="0"/><use xlink:href="#f" transform="matrix(1,0,0,1,343.125,705) translate(0.3271604938271606 17.77777777777778)"/><path d="M397 706c0-3.3 2.7-6 6-6h10.25c3.3 0 6 2.7 6 6v8c0 3.3-2.7 6-6 6H403c-3.3 0-6-2.7-6-6z" stroke="#000" stroke-opacity="0" stroke-width="3" fill="#fff" fill-opacity="0"/><use xlink:href="#g" transform="matrix(1,0,0,1,402,705) translate(0.3271604938271606 17.77777777777778)"/><path d="M220.38 587.5c0-3.3 2.68-6 6-6h10.24c3.32 0 6 2.7 6 6v8c0 3.3-2.68 6-6 6h-10.25c-3.3 0-6-2.7-6-6z" stroke="#000" stroke-opacity="0" stroke-width="3" fill="#fff" fill-opacity="0"/><use xlink:href="#f" transform="matrix(1,0,0,1,225.375,586.5) translate(0.3271604938271606 17.77777777777778)"/><path d="M283 587.5c0-3.3 2.7-6 6-6h10.25c3.3 0 6 2.7 6 6v8c0 3.3-2.7 6-6 6H289c-3.3 0-6-2.7-6-6z" stroke="#000" stroke-opacity="0" stroke-width="3" fill="#fff" fill-opacity="0"/><use xlink:href="#h" transform="matrix(1,0,0,1,288,586.5) translate(0.3271604938271606 17.77777777777778)"/><path d="M338.13 587.5c0-3.3 2.68-6 6-6h10.25c3.3 0 6 2.7 6 6v8c0 3.3-2.7 6-6 6h-10.25c-3.32 0-6-2.7-6-6z" stroke="#000" stroke-opacity="0" stroke-width="3" fill="#fff" fill-opacity="0"/><use xlink:href="#e" transform="matrix(1,0,0,1,343.125,586.5) translate(0.3271604938271606 17.77777777777778)"/><path d="M399.63 587.5c0-3.3 2.68-6 6-6h10.25c3.3 0 6 2.7 6 6v8c0 3.3-2.7 6-6 6h-10.25c-3.32 0-6-2.7-6-6z" stroke="#000" stroke-opacity="0" stroke-width="3" fill="#fff" fill-opacity="0"/><use xlink:href="#d" transform="matrix(1,0,0,1,404.625,586.5) translate(0.3271604938271606 17.77777777777778)"/><path d="M220.38 526c0-3.3 2.68-6 6-6h10.24c3.32 0 6 2.7 6 6v8c0 3.3-2.68 6-6 6h-10.25c-3.3 0-6-2.7-6-6z" stroke="#000" stroke-opacity="0" stroke-width="3" fill="#fff" fill-opacity="0"/><use xlink:href="#i" transform="matrix(1,0,0,1,225.375,525) translate(0.3271604938271606 17.77777777777778)"/><path d="M283 526c0-3.3 2.7-6 6-6h10.25c3.3 0 6 2.7 6 6v8c0 3.3-2.7 6-6 6H289c-3.3 0-6-2.7-6-6z" stroke="#000" stroke-opacity="0" stroke-width="3" fill="#fff" fill-opacity="0"/><use xlink:href="#b" transform="matrix(1,0,0,1,288,525) translate(0.3271604938271606 17.77777777777778)"/><path d="M338.13 527.5c0-3.3 2.68-6 6-6h10.25c3.3 0 6 2.7 6 6v8c0 3.3-2.7 6-6 6h-10.25c-3.32 0-6-2.7-6-6z" stroke="#000" stroke-opacity="0" stroke-width="3" fill="#fff" fill-opacity="0"/><use xlink:href="#j" transform="matrix(1,0,0,1,343.125,526.5) translate(0.3271604938271606 17.77777777777778)"/><path d="M399.63 527.5c0-3.3 2.68-6 6-6h10.25c3.3 0 6 2.7 6 6v8c0 3.3-2.7 6-6 6h-10.25c-3.32 0-6-2.7-6-6z" stroke="#000" stroke-opacity="0" stroke-width="3" fill="#fff" fill-opacity="0"/><use xlink:href="#g" transform="matrix(1,0,0,1,404.625,526.5) translate(0.3271604938271606 17.77777777777778)"/><path d="M620 583.75c0-3.3 2.7-6 6-6h48c3.3 0 6 2.7 6 6V634c0 3.3-2.7 6-6 6h-48c-3.3 0-6-2.7-6-6z" stroke="#5e5e5e" stroke-width="3" fill="#99d2f2"/><use xlink:href="#j" transform="matrix(1,0,0,1,625,582.75) translate(18.82716049382716 31.02777777777778)"/><path d="M560 583c0-3.3 2.7-6 6-6h48c3.3 0 6 2.7 6 6v50.25c0 3.3-2.7 6-6 6h-48c-3.3 0-6-2.7-6-6z" stroke="#5e5e5e" stroke-width="3" fill="#ffeca9"/><use xlink:href="#i" transform="matrix(1,0,0,1,565,582) translate(18.82716049382716 31.02777777777778)"/><path d="M620 645.25c0-3.3 2.7-6 6-6h48c3.3 0 6 2.7 6 6v50.25c0 3.3-2.7 6-6 6h-48c-3.3 0-6-2.7-6-6z" stroke="#5e5e5e" stroke-width="3" fill="#c7e8ac"/><use xlink:href="#c" transform="matrix(1,0,0,1,625,644.25) translate(18.82716049382716 31.02777777777778)"/><path d="M560 646c0-3.3 2.7-6 6-6h48c3.3 0 6 2.7 6 6v50.25c0 3.3-2.7 6-6 6h-48c-3.3 0-6-2.7-6-6z" stroke="#5e5e5e" stroke-width="3" fill="#ffbbb1"/><use xlink:href="#c" transform="matrix(1,0,0,1,565,645) translate(18.82716049382716 31.02777777777778)"/><path d="M461 640h40.5M461.03 640H460" stroke="#5e5e5e" stroke-width="2" fill="none"/><path d="M516.76 640l-14.26 4.64v-9.28z" stroke="#5e5e5e" stroke-width="2" fill="#5e5e5e"/><defs><path fill="#333" d="M27 0v-27h64v-190l-56 39v-29l58-41h29v221h61V0H27" id="k"/><use transform="matrix(0.06172839506172839,0,0,0.06172839506172839,0,0)" xlink:href="#k" id="a"/><path fill="#333" d="M165-50V0h-47v-50H5v-38l105-160h55v161h33v37h-33zm-47-37l2-116L46-87h72" id="l"/><use transform="matrix(0.06172839506172839,0,0,0.06172839506172839,0,0)" xlink:href="#l" id="b"/><path fill="#333" d="M139-81c0-46-55-55-73-27H18l9-140h149v37H72l-4 63c44-38 133-4 122 66C201 21 21 35 11-62l49-4c5 18 15 30 39 30 26 0 40-18 40-45" id="m"/><use transform="matrix(0.06172839506172839,0,0,0.06172839506172839,0,0)" xlink:href="#m" id="c"/><path fill="#333" d="M128-127c34 4 56 21 59 58 7 91-148 94-172 28-4-9-6-17-7-26l51-5c1 24 16 35 40 36 23 0 39-12 38-36-1-31-31-36-65-34v-40c32 2 59-3 59-33 0-20-13-33-34-33s-33 13-35 32l-50-3c6-44 37-68 86-68 50 0 83 20 83 66 0 35-22 52-53 58" id="n"/><use transform="matrix(0.06172839506172839,0,0,0.06172839506172839,0,0)" xlink:href="#n" id="d"/><path fill="#333" d="M101-251c68 0 84 54 84 127C185-50 166 4 99 4S15-52 14-124c-1-75 17-127 87-127zm-1 216c37-5 36-46 36-89s4-89-36-89c-39 0-36 45-36 89 0 43-3 85 36 89" id="o"/><use transform="matrix(0.06172839506172839,0,0,0.06172839506172839,0,0)" xlink:href="#o" id="e"/><path fill="#333" d="M23 0v-37h61v-169l-59 37v-38l62-41h46v211h57V0H23" id="p"/><use transform="matrix(0.06172839506172839,0,0,0.06172839506172839,0,0)" xlink:href="#p" id="f"/><path fill="#333" d="M182-182c0 78-84 86-111 141h115V0H12c-6-101 99-100 120-180 1-22-12-31-33-32-23 0-32 14-35 34l-49-3c5-45 32-70 84-70 51 0 83 22 83 69" id="q"/><use transform="matrix(0.06172839506172839,0,0,0.06172839506172839,0,0)" xlink:href="#q" id="g"/><path fill="#333" d="M115-159c48 0 72 30 72 78 0 54-30 85-83 85-64 0-91-50-91-122 0-98 58-163 141-120 15 8 21 24 27 44l-47 6c-5-31-48-31-61-4-7 14-11 33-11 60 9-17 28-27 53-27zM102-35c24 0 36-20 36-45s-11-43-37-43c-23 0-36 14-36 38 0 27 11 50 37 50" id="r"/><use transform="matrix(0.06172839506172839,0,0,0.06172839506172839,0,0)" xlink:href="#r" id="h"/><path fill="#333" d="M138-131c27 9 52 24 51 61 0 53-36 74-89 74S11-19 11-69c0-35 22-54 51-61-78-25-46-121 38-121 51 0 83 19 83 66 0 30-18 49-45 54zm-38-16c24 0 32-13 32-36 1-23-11-34-32-34-22 0-33 12-32 34 0 22 9 36 32 36zm1 116c27 0 37-17 37-43 0-25-13-39-39-39-24 0-37 15-37 40 0 27 11 42 39 42" id="s"/><use transform="matrix(0.06172839506172839,0,0,0.06172839506172839,0,0)" xlink:href="#s" id="i"/><path fill="#333" d="M52 0c1-96 47-148 87-207H15v-41h169v40c-36 62-79 113-81 208H52" id="t"/><use transform="matrix(0.06172839506172839,0,0,0.06172839506172839,0,0)" xlink:href="#t" id="j"/></defs></g></svg>