<svg xmlns="http://www.w3.org/2000/svg" xmlns:xlink="http://www.w3.org/1999/xlink" xmlns:lucid="lucid" width="568" height="564"><g transform="translate(-354 -275)" lucid:page-tab-id="uDe-dIt-NWfS"><path d="M380 300h64.17v64.48H380zM444.17 300h64.16v64.48h-64.16z" fill="#fff"/><path d="M508.33 300h64.17v64.48h-64.17zM572.5 300h64.17v64.48H572.5zM636.67 300h64.16v64.48h-64.16zM700.83 300H765v64.48h-64.17zM765 300h64.17v64.48H765zM829.17 300h64.16v64.48h-64.16zM380 364.48h64.17v64.48H380zM444.17 364.48h64.16v64.48h-64.16z" fill="#fff"/><path d="M508.33 364.48h64.17v64.48h-64.17zM572.5 364.48h64.17v64.48H572.5zM636.67 364.48h64.16v64.48h-64.16zM700.83 364.48H765v64.48h-64.17zM765 364.48h64.17v64.48H765zM829.17 364.48h64.16v64.48h-64.16zM380 428.96h64.17v64.48H380z" fill="#fff"/><path d="M444.17 428.96h64.16v64.48h-64.16z" fill="#fff"/><path d="M508.33 428.96H765V686.9H508.33zM765 428.96h64.17v64.48H765zM829.17 428.96h64.16v64.48h-64.16zM380 493.44h64.17v64.48H380z" fill="#fff"/><path d="M444.17 493.44h64.16v64.48h-64.16zM765 493.44h64.17v64.48H765zM829.17 493.44h64.16v64.48h-64.16zM380 557.92h64.17v64.5H380zM444.17 557.92h64.16v64.5h-64.16zM765 557.92h64.17v64.5H765zM829.17 557.92h64.16v64.5h-64.16z" fill="#fff"/><path d="M380 622.4h64.17v64.5H380zM444.17 622.4h64.16v64.5h-64.16zM765 622.4h64.17v64.5H765zM829.17 622.4h64.16v64.5h-64.16zM380 686.9h64.17v64.47H380zM444.17 686.9h64.16v64.47h-64.16z" fill="#fff"/><path d="M508.33 686.9h64.17v64.47h-64.17zM572.5 686.9h64.17v64.47H572.5zM636.67 686.9h64.16v64.47h-64.16zM700.83 686.9H765v64.47h-64.17zM765 686.9h64.17v64.47H765zM829.17 686.9h64.16v64.47h-64.16zM380 751.37h64.17v64.48H380zM444.17 751.37h64.16v64.48h-64.16z" fill="#fff"/><path d="M508.33 751.37h64.17v64.48h-64.17zM572.5 751.37h64.17v64.48H572.5zM636.67 751.37h64.16v64.48h-64.16zM700.83 751.37H765v64.48h-64.17zM765 751.37h64.17v64.48H765zM829.17 751.37h64.16v64.48h-64.16z" fill="#fff"/><path d="M380 300v64.48M444.17 300v64.48M508.33 300v64.48M572.5 300v64.48M636.67 300v64.48M700.83 300v64.48M765 300v64.48M829.17 300v64.48M893.33 300v64.48M380 364.48v64.48M444.17 364.48v64.48M508.33 364.48v64.48M572.5 364.48v64.48M636.67 364.48v64.48M700.83 364.48v64.48M765 364.48v64.48M829.17 364.48v64.48M893.33 364.48v64.48M380 428.96v64.48M444.17 428.96v64.48M508.33 428.96V686.9M765 428.96v64.48M829.17 428.96v64.48M893.33 428.96v64.48M380 493.44v64.48M444.17 493.44v64.48M765 493.44v64.48M829.17 493.44v64.48M893.33 493.44v64.48M380 557.92v64.5M444.17 557.92v64.5M765 557.92v64.5M829.17 557.92v64.5M893.33 557.92v64.5M380 622.4v64.5M444.17 622.4v64.5M765 622.4v64.5M829.17 622.4v64.5M893.33 622.4v64.5M380 686.9v64.47M444.17 686.9v64.47M508.33 686.9v64.47M572.5 686.9v64.47M636.67 686.9v64.47M700.83 686.9v64.47M765 686.9v64.47M829.17 686.9v64.47M893.33 686.9v64.47M380 751.37v64.48M444.17 751.37v64.48M508.33 751.37v64.48M572.5 751.37v64.48M636.67 751.37v64.48M700.83 751.37v64.48M765 751.37v64.48M829.17 751.37v64.48M893.33 751.37v64.48M380 300h64.17M444.17 300h64.16M508.33 300h64.17M572.5 300h64.17M636.67 300h64.16M700.83 300H765M765 300h64.17M829.17 300h64.16M380 364.48h64.17M444.17 364.48h64.16M508.33 364.48h64.17M572.5 364.48h64.17M636.67 364.48h64.16M700.83 364.48H765M765 364.48h64.17M829.17 364.48h64.16M380 428.96h64.17M444.17 428.96h64.16M508.33 428.96H765M765 428.96h64.17M829.17 428.96h64.16M380 493.44h64.17M444.17 493.44h64.16M765 493.44h64.17M829.17 493.44h64.16M380 557.92h64.17M444.17 557.92h64.16M765 557.92h64.17M829.17 557.92h64.16M380 622.4h64.17M444.17 622.4h64.16M765 622.4h64.17M829.17 622.4h64.16M380 686.9h64.17M444.17 686.9h64.16M508.33 686.9h64.17M572.5 686.9h64.17M636.67 686.9h64.16M700.83 686.9H765M765 686.9h64.17M829.17 686.9h64.16M380 751.37h64.17M380 815.85h64.17M444.17 751.37h64.16M444.17 815.85h64.16M508.33 751.37h64.17M508.33 815.85h64.17M572.5 751.37h64.17M572.5 815.85h64.17M636.67 751.37h64.16M636.67 815.85h64.16M700.83 751.37H765M700.83 815.85H765M765 751.37h64.17M765 815.85h64.17M829.17 751.37h64.16M829.17 815.85h64.16" stroke="#333" fill="none"/><use xlink:href="#a" transform="matrix(1,0,0,1,385,305) translate(22.5 31.1)"/><use xlink:href="#a" transform="matrix(1,0,0,1,449.1666666666667,305) translate(22.5 31.1)"/><use xlink:href="#a" transform="matrix(1,0,0,1,513.3333333333334,305) translate(22.5 31.1)"/><use xlink:href="#a" transform="matrix(1,0,0,1,577.5,305) translate(22.5 31.1)"/><use xlink:href="#a" transform="matrix(1,0,0,1,641.6666666666667,305) translate(22.5 31.1)"/><use xlink:href="#a" transform="matrix(1,0,0,1,705.8333333333334,305) translate(22.5 31.1)"/><use xlink:href="#a" transform="matrix(1,0,0,1,770,305) translate(22.5 31.1)"/><use xlink:href="#a" transform="matrix(1,0,0,1,834.1666666666667,305) translate(22.5 31.1)"/><use xlink:href="#a" transform="matrix(1,0,0,1,385,369.4812058275321) translate(22.5 31.1)"/><use xlink:href="#a" transform="matrix(1,0,0,1,449.1666666666667,369.4812058275321) translate(22.5 31.1)"/><use xlink:href="#a" transform="matrix(1,0,0,1,513.3333333333334,369.4812058275321) translate(22.5 31.1)"/><use xlink:href="#a" transform="matrix(1,0,0,1,577.5,369.4812058275321) translate(22.5 31.1)"/><use xlink:href="#a" transform="matrix(1,0,0,1,641.6666666666667,369.4812058275321) translate(22.5 31.1)"/><use xlink:href="#a" transform="matrix(1,0,0,1,705.8333333333334,369.4812058275321) translate(22.5 31.1)"/><use xlink:href="#a" transform="matrix(1,0,0,1,770,369.4812058275321) translate(22.5 31.1)"/><use xlink:href="#a" transform="matrix(1,0,0,1,834.1666666666667,369.4812058275321) translate(22.5 31.1)"/><use xlink:href="#a" transform="matrix(1,0,0,1,385,433.9624116550642) translate(22.5 31.1)"/><use xlink:href="#a" transform="matrix(1,0,0,1,449.1666666666667,433.9624116550642) translate(22.5 31.1)"/><use xlink:href="#b" transform="matrix(1,0,0,1,513.3333333333334,433.9624116550642) translate(86.19166666666668 129.3777777777778)"/><use xlink:href="#a" transform="matrix(1,0,0,1,770,433.9624116550642) translate(22.5 31.1)"/><use xlink:href="#a" transform="matrix(1,0,0,1,834.1666666666667,433.9624116550642) translate(22.5 31.1)"/><use xlink:href="#a" transform="matrix(1,0,0,1,385,498.4436174825963) translate(22.5 31.1)"/><use xlink:href="#a" transform="matrix(1,0,0,1,449.1666666666667,498.4436174825963) translate(22.5 31.1)"/><use xlink:href="#a" transform="matrix(1,0,0,1,770,498.4436174825963) translate(22.5 31.1)"/><use xlink:href="#a" transform="matrix(1,0,0,1,834.1666666666667,498.4436174825963) translate(22.5 31.1)"/><use xlink:href="#a" transform="matrix(1,0,0,1,385,562.9248233101284) translate(22.5 31.1)"/><use xlink:href="#a" transform="matrix(1,0,0,1,449.1666666666667,562.9248233101284) translate(22.5 31.1)"/><use xlink:href="#a" transform="matrix(1,0,0,1,770,562.9248233101284) translate(22.5 31.1)"/><use xlink:href="#a" transform="matrix(1,0,0,1,834.1666666666667,562.9248233101284) translate(22.5 31.1)"/><use xlink:href="#a" transform="matrix(1,0,0,1,385,627.4060291376605) translate(22.5 31.1)"/><use xlink:href="#a" transform="matrix(1,0,0,1,449.1666666666667,627.4060291376605) translate(22.5 31.1)"/><use xlink:href="#a" transform="matrix(1,0,0,1,770,627.4060291376605) translate(22.5 31.1)"/><use xlink:href="#a" transform="matrix(1,0,0,1,834.1666666666667,627.4060291376605) translate(22.5 31.1)"/><use xlink:href="#a" transform="matrix(1,0,0,1,385,691.8872349651926) translate(22.5 31.1)"/><use xlink:href="#a" transform="matrix(1,0,0,1,449.1666666666667,691.8872349651926) translate(22.5 31.1)"/><use xlink:href="#a" transform="matrix(1,0,0,1,513.3333333333334,691.8872349651926) translate(22.5 31.1)"/><use xlink:href="#a" transform="matrix(1,0,0,1,577.5,691.8872349651926) translate(22.5 31.1)"/><use xlink:href="#a" transform="matrix(1,0,0,1,641.6666666666667,691.8872349651926) translate(22.5 31.1)"/><use xlink:href="#a" transform="matrix(1,0,0,1,705.8333333333334,691.8872349651926) translate(22.5 31.1)"/><use xlink:href="#a" transform="matrix(1,0,0,1,770,691.8872349651926) translate(22.5 31.1)"/><use xlink:href="#a" transform="matrix(1,0,0,1,834.1666666666667,691.8872349651926) translate(22.5 31.1)"/><use xlink:href="#a" transform="matrix(1,0,0,1,385,756.3684407927248) translate(22.5 31.1)"/><use xlink:href="#a" transform="matrix(1,0,0,1,449.1666666666667,756.3684407927248) translate(22.5 31.1)"/><use xlink:href="#a" transform="matrix(1,0,0,1,513.3333333333334,756.3684407927248) translate(22.5 31.1)"/><use xlink:href="#a" transform="matrix(1,0,0,1,577.5,756.3684407927248) translate(22.5 31.1)"/><use xlink:href="#a" transform="matrix(1,0,0,1,641.6666666666667,756.3684407927248) translate(22.5 31.1)"/><use xlink:href="#a" transform="matrix(1,0,0,1,705.8333333333334,756.3684407927248) translate(22.5 31.1)"/><use xlink:href="#a" transform="matrix(1,0,0,1,770,756.3684407927248) translate(22.5 31.1)"/><use xlink:href="#a" transform="matrix(1,0,0,1,834.1666666666667,756.3684407927248) translate(22.5 31.1)"/><defs><path d="M101-251c68 0 85 55 85 127S166 4 100 4C33 4 14-52 14-124c0-73 17-127 87-127zm-1 229c47 0 54-49 54-102s-4-102-53-102c-51 0-55 48-55 102 0 53 5 102 54 102" id="c"/><use transform="matrix(0.05,0,0,0.05,0,0)" xlink:href="#c" id="a"/><path d="M33 0v-248h34V0H33" id="d"/><path d="M210-169c-67 3-38 105-44 169h-31v-121c0-29-5-50-35-48C34-165 62-65 56 0H25l-1-190h30c1 10-1 24 2 32 10-44 99-50 107 0 11-21 27-35 58-36 85-2 47 119 55 194h-31v-121c0-29-5-49-35-48" id="e"/><path d="M141-36C126-15 110 5 73 4 37 3 15-17 15-53c-1-64 63-63 125-63 3-35-9-54-41-54-24 1-41 7-42 31l-33-3c5-37 33-52 76-52 45 0 72 20 72 64v82c-1 20 7 32 28 27v20c-31 9-61-2-59-35zM48-53c0 20 12 33 32 33 41-3 63-29 60-74-43 2-92-5-92 41" id="f"/><path d="M177-190C167-65 218 103 67 71c-23-6-38-20-44-43l32-5c15 47 100 32 89-28v-30C133-14 115 1 83 1 29 1 15-40 15-95c0-56 16-97 71-98 29-1 48 16 59 35 1-10 0-23 2-32h30zM94-22c36 0 50-32 50-73 0-42-14-75-50-75-39 0-46 34-46 75s6 73 46 73" id="g"/><path d="M100-194c63 0 86 42 84 106H49c0 40 14 67 53 68 26 1 43-12 49-29l28 8c-11 28-37 45-77 45C44 4 14-33 15-96c1-61 26-98 85-98zm52 81c6-60-76-77-97-28-3 7-6 17-6 28h103" id="h"/><g id="b"><use transform="matrix(0.07469135802469135,0,0,0.07469135802469135,0,0)" xlink:href="#d"/><use transform="matrix(0.07469135802469135,0,0,0.07469135802469135,7.469135802469134,0)" xlink:href="#e"/><use transform="matrix(0.07469135802469135,0,0,0.07469135802469135,29.801851851851843,0)" xlink:href="#f"/><use transform="matrix(0.07469135802469135,0,0,0.07469135802469135,44.740123456790116,0)" xlink:href="#g"/><use transform="matrix(0.07469135802469135,0,0,0.07469135802469135,59.678395061728374,0)" xlink:href="#h"/></g></defs></g></svg>